<?xml version="1.0" encoding="utf-8"?>
<!-- Generator: Adobe Illustrator 16.0.0, SVG Export Plug-In . SVG Version: 6.00 Build 0)  -->
<!DOCTYPE svg PUBLIC "-//W3C//DTD SVG 1.1//EN" "http://www.w3.org/Graphics/SVG/1.1/DTD/svg11.dtd">
<svg version="1.1" id="Layer_1" xmlns="http://www.w3.org/2000/svg" xmlns:xlink="http://www.w3.org/1999/xlink" x="0px" y="0px"
	 width="5413.498px" height="1369.524px" viewBox="362.131 317.912 5413.498 1369.524"
	 enable-background="new 362.131 317.912 5413.498 1369.524" xml:space="preserve">
<rect y="-107.239" display="none" width="6222.842" height="2123.24"/>
<g>
	<g id="PLAY_2_">
		<g>
			<g>
				<g>
					<g>
						<g>
							<g>
								<g>
									<g>
										<defs>
											<path id="SVGID_1_" d="M1231.892,820.076l-276.756-159.78c0,0-504.192-291.132-533.832-308.244
												c-29.646-17.112-59.173-6.744-59.173,29.016c0,59.58,0,621.604,0,621.604s0,607.38,0,634.212
												c0,26.807,21.104,38.363,46.854,23.508c25.74-14.881,546.146-315.348,546.146-315.348l276.739-159.771
												c0,0,234.815-135.562,266.027-153.572c31.212-18.033,28.212-42.759,1.872-56.938
												C1473.452,960.56,1231.892,820.076,1231.892,820.076z"/>
										</defs>
										<clipPath id="SVGID_2_">
											<use xlink:href="#SVGID_1_"  overflow="visible"/>
										</clipPath>
										
											<linearGradient id="SVGID_3_" gradientUnits="userSpaceOnUse" x1="21135.0156" y1="-358.8184" x2="21135.0156" y2="-245.5151" gradientTransform="matrix(12 0 0 12 -252915.25 4628.6748)">
											<stop  offset="0" style="stop-color:#257CB0"/>
											<stop  offset="0.2863" style="stop-color:#4A93B5"/>
											<stop  offset="0.767" style="stop-color:#78BCBB"/>
											<stop  offset="1" style="stop-color:#89CFBD"/>
										</linearGradient>
										<polygon clip-path="url(#SVGID_2_)" fill="url(#SVGID_3_)" points="362.144,322.856 362.144,1002.669 362.144,1682.493 
											1047.751,1002.68 										"/>
									</g>
								</g>
							</g>
						</g>
					</g>
				</g>
			</g>
		</g>
		<g>
			<g>
				<g>
					<g>
						<g>
							<g>
								<g>
									<g>
										<defs>
											<path id="SVGID_4_" d="M1231.892,820.076l-276.756-159.78c0,0-504.192-291.132-533.832-308.244
												c-29.646-17.112-59.173-6.744-59.173,29.016c0,59.58,0,621.604,0,621.604s0,607.38,0,634.212
												c0,26.807,21.104,38.363,46.854,23.508c25.74-14.881,546.146-315.348,546.146-315.348l276.739-159.771
												c0,0,234.815-135.562,266.027-153.572c31.212-18.033,28.212-42.759,1.872-56.938
												C1473.452,960.56,1231.892,820.076,1231.892,820.076z"/>
										</defs>
										<clipPath id="SVGID_5_">
											<use xlink:href="#SVGID_4_"  overflow="visible"/>
										</clipPath>
										
											<linearGradient id="SVGID_6_" gradientUnits="userSpaceOnUse" x1="21106.4492" y1="-330.6982" x2="21178.9277" y2="-330.6982" gradientTransform="matrix(12 0 0 12 -252915.25 4628.6748)">
											<stop  offset="0" style="stop-color:#52C1AD"/>
											<stop  offset="1" style="stop-color:#DEE89A"/>
										</linearGradient>
										<polygon clip-path="url(#SVGID_5_)" fill="url(#SVGID_6_)" points="1231.892,820.076 955.136,660.296 362.144,317.912 
											362.144,322.856 1047.751,1002.68 										"/>
									</g>
								</g>
							</g>
						</g>
					</g>
				</g>
			</g>
		</g>
		<g>
			<g>
				<g>
					<g>
						<g>
							<g>
								<g>
									<g>
										<defs>
											<path id="SVGID_7_" d="M1231.892,820.076l-276.756-159.78c0,0-504.192-291.132-533.832-308.244
												c-29.646-17.112-59.173-6.744-59.173,29.016c0,59.58,0,621.604,0,621.604s0,607.38,0,634.212
												c0,26.807,21.104,38.363,46.854,23.508c25.74-14.881,546.146-315.348,546.146-315.348l276.739-159.771
												c0,0,234.815-135.562,266.027-153.572c31.212-18.033,28.212-42.759,1.872-56.938
												C1473.452,960.56,1231.892,820.076,1231.892,820.076z"/>
										</defs>
										<clipPath id="SVGID_8_">
											<use xlink:href="#SVGID_7_"  overflow="visible"/>
										</clipPath>
										
											<linearGradient id="SVGID_9_" gradientUnits="userSpaceOnUse" x1="21142.6875" y1="-302.166" x2="21142.6875" y2="-245.1035" gradientTransform="matrix(12 0 0 12 -252915.25 4628.6748)">
											<stop  offset="0" style="stop-color:#EC413D"/>
											<stop  offset="0.1668" style="stop-color:#DA4452"/>
											<stop  offset="0.5748" style="stop-color:#B0487A"/>
											<stop  offset="0.8619" style="stop-color:#954A92"/>
											<stop  offset="1" style="stop-color:#8A4A9D"/>
										</linearGradient>
										<polygon clip-path="url(#SVGID_8_)" fill="url(#SVGID_9_)" points="362.144,1682.493 362.144,1687.436 955.136,1345.04 
											1231.879,1185.26 1047.751,1002.68 										"/>
									</g>
								</g>
							</g>
						</g>
					</g>
				</g>
			</g>
		</g>
		<g>
			<g>
				<g>
					<g>
						<g>
							<g>
								<g>
									<g>
										<defs>
											<path id="SVGID_10_" d="M1231.892,820.076l-276.756-159.78c0,0-504.192-291.132-533.832-308.244
												c-29.646-17.112-59.173-6.744-59.173,29.016c0,59.58,0,621.604,0,621.604s0,607.38,0,634.212
												c0,26.807,21.104,38.363,46.854,23.508c25.74-14.881,546.146-315.348,546.146-315.348l276.739-159.771
												c0,0,234.815-135.562,266.027-153.572c31.212-18.033,28.212-42.759,1.872-56.938
												C1473.452,960.56,1231.892,820.076,1231.892,820.076z"/>
										</defs>
										<clipPath id="SVGID_11_">
											<use xlink:href="#SVGID_10_"  overflow="visible"/>
										</clipPath>
										
											<linearGradient id="SVGID_12_" gradientUnits="userSpaceOnUse" x1="21184.4336" y1="-317.3833" x2="21184.4336" y2="-286.9512" gradientTransform="matrix(12 0 0 12 -252915.25 4628.6748)">
											<stop  offset="0" style="stop-color:#F58879"/>
											<stop  offset="0.1194" style="stop-color:#F69079"/>
											<stop  offset="0.7128" style="stop-color:#FCB877"/>
											<stop  offset="1" style="stop-color:#FEC874"/>
										</linearGradient>
										<polygon clip-path="url(#SVGID_11_)" fill="url(#SVGID_12_)" points="1231.892,820.076 1047.751,1002.68 
											1231.879,1185.26 1548.164,1002.669 										"/>
									</g>
								</g>
							</g>
						</g>
					</g>
				</g>
			</g>
		</g>
	</g>
	<path fill="#FFFFFF" d="M4678.461,1268.456c-25.752,0-49.248-4.752-70.523-14.244c-21.27-9.504-39.145-24.119-53.592-43.824h-4.313
		c2.881,23.088,4.313,44.98,4.313,65.652v162.709h-59.854V865.832h48.693l8.279,54.12h2.879
		c15.408-21.66,33.336-37.272,53.77-46.896c20.439-9.624,43.896-14.436,70.332-14.436c52.439,0,92.916,17.928,121.404,53.76
		c28.5,35.832,42.756,86.113,42.756,150.792c0,64.943-14.496,115.379-43.451,151.367
		C4770.176,1250.493,4729.951,1268.456,4678.461,1268.456z M4669.797,909.488c-40.402,0-69.625,11.195-87.66,33.559
		c-18.037,22.368-27.301,57.971-27.793,106.799v13.332c0,55.572,9.266,95.316,27.793,119.256
		c18.527,23.941,48.238,35.881,89.102,35.881c34.176,0,60.939-13.813,80.314-41.473c19.344-27.648,29.02-65.771,29.02-114.383
		c0-49.285-9.686-87.139-29.02-113.459C4732.184,922.64,4704.92,909.488,4669.797,909.488z"/>
	<path fill="#FFFFFF" d="M4981.279,1261.23H4921.4V699.872h59.879V1261.23z"/>
	<path fill="#FFFFFF" d="M5325.596,1261.23l-11.916-56.272h-2.879c-19.73,24.791-39.385,41.576-58.992,50.323
		c-19.6,8.8-44.076,13.181-73.404,13.181c-39.205,0-69.924-10.105-92.184-30.303c-22.264-20.193-33.373-48.929-33.373-86.224
		c0-79.836,63.861-121.688,191.564-125.557l67.129-2.172V999.68c0-31.032-6.688-53.953-20.041-68.725
		c-13.332-14.813-34.717-22.199-64.031-22.199c-32.965,0-70.248,10.104-111.842,30.3l-18.406-45.813
		c19.5-10.584,40.824-18.875,64.064-24.893c23.209-6.012,46.465-9.021,69.805-9.021c47.139,0,82.066,10.45,104.811,31.381
		c22.715,20.928,34.08,54.479,34.08,100.668v269.843h-44.377v0.01L5325.596,1261.23L5325.596,1261.23z M5190.309,1219.04
		c37.26,0,66.539-10.229,87.84-30.66c21.264-20.438,31.932-49.068,31.932-85.883v-35.714l-59.916,2.509
		c-47.615,1.717-81.924,9.084-102.996,22.225c-21.035,13.105-31.561,33.492-31.561,61.152c0,21.635,6.541,38.123,19.668,49.397
		C5148.393,1213.387,5166.717,1219.04,5190.309,1219.04z"/>
	<path fill="#FFFFFF" d="M5404.736,865.832h64.199l86.592,225.493c18.996,51.479,30.793,88.631,35.377,111.485h2.879
		c3.133-12.289,9.697-33.252,19.656-62.981c9.98-29.714,42.645-121.021,97.941-273.997h64.248l-169.941,450.252
		c-16.824,44.496-36.492,76.063-59.004,94.738c-22.479,18.625-50.088,27.926-82.768,27.926c-18.287,0-36.324-2.041-54.145-6.121
		v-47.979c13.225,2.885,28.023,4.332,44.389,4.332c41.141,0,70.453-23.091,88.033-69.271l21.996-56.271L5404.736,865.832z"/>
	<path fill="#FFFFFF" d="M3569.072,902.576c19.008,15.729,58.703,48.772,58.703,111.672c0,61.165-34.738,90.168-69.48,117.42
		c-10.752,10.74-23.156,22.354-23.156,40.572c0,18.147,12.395,28.092,21.523,35.543l29.783,23.104
		c36.387,30.611,69.436,58.752,69.436,115.836c0,77.736-75.266,156.275-217.486,156.275c-119.939,0-177.807-57.047-177.807-118.283
		c0-29.76,14.818-71.916,63.688-100.895c51.24-31.435,120.758-35.521,157.955-38.064c-11.613-14.869-24.814-30.588-24.814-56.184
		c0-14.041,4.15-22.32,8.271-32.293c-9.133,0.84-18.217,1.668-26.496,1.668c-87.637,0-137.258-65.34-137.258-129.816
		c0-38.051,17.391-80.255,52.906-110.82c47.158-38.862,103.396-45.504,148.094-45.504h170.328l-52.936,29.772h-51.252v-0.016
		L3569.072,902.576L3569.072,902.576z M3510.332,1269.8c-6.611-0.863-10.764-0.863-18.996-0.863
		c-7.438,0-52.164,1.691-86.854,13.295c-18.193,6.564-71.139,26.412-71.139,85.164c0,58.693,57.098,100.938,145.598,100.938
		c79.344,0,121.57-38.123,121.57-89.355C3600.512,1336.712,3573.213,1314.475,3510.332,1269.8z M3534.332,1112.635
		c18.996-19.043,20.627-45.479,20.627-60.383c0-59.534-35.543-152.162-104.172-152.162c-21.527,0-44.664,10.74-57.898,27.3
		c-14.041,17.364-18.217,39.672-18.217,61.2c0,55.405,32.256,147.214,103.416,147.214
		C3498.764,1135.807,3521.049,1125.884,3534.332,1112.635z"/>
	<path fill="#FFFFFF" d="M3048.404,1256.563c-131.268,0-201.459-102.395-201.459-194.891c0-108.18,88.332-200.618,213.887-200.618
		c121.32,0,197.293,94.92,197.293,194.858C3258.141,1153.303,3183.031,1256.563,3048.404,1256.563z M3151.604,1189.688
		c19.848-26.447,24.805-59.461,24.805-91.688c0-72.688-34.68-211.378-137.076-211.378c-27.238,0-54.475,10.752-74.291,28.128
		c-32.209,28.854-38.016,65.208-38.016,100.751c0,81.683,40.463,216.237,140.395,216.237
		C3099.619,1231.734,3132.656,1216.077,3151.604,1189.688z"/>
	<path fill="#FFFFFF" d="M2600.864,1256.563c-131.292,0-201.492-102.395-201.492-194.891c0-108.18,88.368-200.618,213.89-200.618
		c121.354,0,197.315,94.92,197.315,194.858C2810.588,1153.303,2735.468,1256.563,2600.864,1256.563z M2704.087,1189.688
		c19.813-26.447,24.78-59.461,24.78-91.688c0-72.688-34.704-211.378-137.1-211.378c-27.229,0-54.492,10.752-74.292,28.128
		c-32.208,28.854-37.98,65.208-37.98,100.751c0,81.683,40.44,216.237,140.389,216.237
		C2652.091,1231.734,2685.104,1216.077,2704.087,1189.688z"/>
	<path fill="#FFFFFF" d="M2336.3,1243.615l-118.729,27.396c-48.168,7.488-91.32,14.076-136.956,14.076
		c-229.151,0-316.284-168.527-316.284-300.528c0-161.021,123.673-310.416,335.39-310.416c44.85,0,87.978,6.624,126.983,17.424
		c62.256,17.438,91.308,39,109.584,51.476l-68.929,65.579l-29.04,6.605l20.748-33.216c-28.212-27.372-79.729-78-177.647-78
		c-131.172,0-229.979,99.66-229.979,244.92c0,156.025,112.92,302.964,293.854,302.964c53.188,0,80.521-10.771,105.443-20.76
		v-133.621l-125.327,6.637l66.386-35.729H2367.8l-21.563,20.748c-5.854,5.004-6.659,6.684-8.313,13.26
		c-0.863,7.488-1.646,31.584-1.646,39.875v101.316h0.021V1243.615L2336.3,1243.615z"/>
	<path fill="#FFFFFF" d="M3831.451,1219.712c-27.406-2.496-33.143-7.451-33.143-39.863v-9.145V710
		c0.168-1.788,0.27-3.624,0.443-5.354c3.348-29.04,11.641-34.02,37.395-48.979h-118.742l-62.281,29.892h63.471v0.372l-0.049-0.3
		v485.087v27.42c0,16.572-3.273,19.092-22.393,43.967h146.951l30.721-18.215C3859.725,1222.173,3845.59,1221.368,3831.451,1219.712z
		"/>
	<path fill="#FFFFFF" d="M4169.252,1227.344c-9.035,4.955-18.105,10.752-27.145,14.844c-27.252,12.359-55.271,15.672-80.051,15.672
		c-26.316,0-67.572-1.703-109.656-32.172c-58.488-41.256-84.049-112.146-84.049-173.965c0-127.763,103.873-190.417,188.785-190.417
		c29.688,0,60.229,7.404,84.959,23.104c41.186,27.148,51.9,62.604,57.637,81.568l-193.689,78.354l-63.492,4.938
		c20.58,104.699,91.48,165.66,169.824,165.66c42.035,0,72.551-14.809,100.57-28.801L4169.252,1227.344z M4091.779,981.632
		c15.637-5.748,23.881-10.716,23.881-22.248c0-32.952-37.08-70.896-81.637-70.896c-33.021,0-94.811,25.571-94.811,114.595
		c0,14.016,1.656,28.848,2.52,43.732L4091.779,981.632z"/>
	<path fill="#FFFFFF" d="M4248.824,866.947v54.396h-6.611v-54.396h-18v-5.641h42.602v5.641H4248.824z"/>
	<path fill="#FFFFFF" d="M4322.984,921.344v-54.9h-0.301l-16.752,54.9h-5.172l-16.895-54.9h-0.215v54.9h-6v-60.036h10.283
		l15.289,48.528h0.215l15.063-48.528h10.436v60.036H4322.984z"/>
	<path fill="#FFFFFF" d="M1929.211,512.504h-41.256c0-5.676-3.912-21.744-11.729-48.216h-59.563
		c-8.076,26.04-12.12,42.104-12.12,48.216h-38.796c0-3.348,10.032-30.854,30.096-82.5c20.064-51.648,30.104-80.104,30.104-85.332
		h48.729c0,4.896,9.084,32.928,27.271,84.104C1920.116,479.96,1929.211,507.859,1929.211,512.504z M1869.656,439.664
		c-14.7-44.34-22.044-68.316-22.044-71.936h-2.063c0,3.354-7.604,27.324-22.813,71.936H1869.656z"/>
	<path fill="#FFFFFF" d="M2095.436,512.504H2063.6c0-3.528-11.82-22.128-35.448-55.813c-24.744-35.496-38.844-59.76-42.275-72.821
		h-2.063c2.146,18.813,3.229,35.826,3.229,51.049c0,21.228,0.604,47.1,1.806,77.604h-31.724c1.284-26.64,1.938-55.896,1.938-87.775
		c0-31.365-0.646-58.061-1.938-80.057h38.28c0,4.563,10.608,22.74,31.836,54.528c22.597,33.768,35.58,56.676,38.929,68.712h1.938
		c-2.063-19.164-3.097-36.348-3.097-51.563c0-23.274-0.604-47.186-1.805-71.678h32.23c-1.212,21.313-1.8,48-1.8,80.057
		C2093.624,457.027,2094.224,486.284,2095.436,512.504z"/>
	<path fill="#FFFFFF" d="M2282.264,422.779c0,24.408-7.824,45.728-23.46,63.938c-15.648,18.228-37.563,27.324-65.748,27.324
		c-12.721,0-30.252-0.521-52.596-1.548c1.108-25.956,1.68-55.229,1.68-87.78c0-31.272-0.564-57.96-1.68-80.052h22.56
		c3.696,0,9.192-0.14,16.5-0.392c7.296-0.252,12.072-0.384,14.304-0.384c31.021,0,53.508,7.74,67.488,23.208
		C2275.28,382.567,2282.264,401.12,2282.264,422.779z M2247.08,428.324c0-16.5-4.812-30.396-14.436-41.72
		c-9.624-11.292-24.324-16.938-44.088-16.938c-3.696,0-8.76,0.384-15.217,1.164c0.853,17.188,1.277,35.146,1.277,53.88
		c0,20.544,0.438,40.908,1.284,61.104c5.58,1.116,11.172,1.688,16.752,1.688c18.479,0,32.16-5.748,41.052-17.228
		C2242.604,458.804,2247.08,444.824,2247.08,428.324z"/>
	<path fill="#FFFFFF" d="M2454.548,512.504h-38.153c-9.979-30.42-17.616-49.2-22.944-56.328c-5.328-7.14-13.92-10.704-25.771-10.704
		c-4.99,0-9.762,0.048-14.31,0.132c0,22.092,0.388,44.396,1.164,66.9h-35.832c1.116-25.956,1.687-55.225,1.687-87.78
		c0-31.271-0.563-57.96-1.687-80.052h22.296c2.58,0,7.973-0.132,16.18-0.384c8.209-0.252,15.793-0.391,22.752-0.391
		c39.44,0,59.174,13.487,59.174,40.479c0,21.396-11.258,36.3-33.771,44.734v1.934c8.679,2.396,16.284,9.18,22.813,20.292
		C2434.652,462.464,2443.46,482.852,2454.548,512.504z M2406.212,393.908c0-17.104-11.004-25.656-33-25.656
		c-8.069,0-15.217,0.6-21.396,1.8c0.947,13.32,1.416,30.684,1.416,52.08c4.728,0.18,8.724,0.252,11.988,0.252
		C2392.544,422.396,2406.212,412.904,2406.212,393.908z"/>
	<path fill="#FFFFFF" d="M2639.324,425.492c0,26.376-8.076,48.252-24.24,65.608c-16.164,17.354-36.144,26.04-59.938,26.04
		c-22.692,0-41.688-7.968-56.979-23.916c-15.3-15.936-22.938-36.204-22.938-60.768c0-26.376,8.072-48.252,24.236-65.616
		c16.15-17.354,36.137-26.04,59.938-26.04c22.688,0,41.676,7.944,56.978,23.844C2631.679,380.552,2639.324,400.819,2639.324,425.492
		z M2603.755,429.224c0-17.964-4.596-32.532-13.787-43.704c-9.197-11.172-20.545-16.752-34.025-16.752
		c-12.559,0-23.208,5.628-31.975,16.885c-8.76,11.263-13.164,25.479-13.164,42.679c0,17.86,4.619,32.404,13.859,43.632
		c9.24,11.22,20.557,16.818,33.973,16.818c12.539,0,23.208-5.646,31.969-16.951C2599.364,460.531,2603.755,446.324,2603.755,429.224
		z"/>
	<path fill="#FFFFFF" d="M2712.212,512.504h-36.479c1.116-26.641,1.68-55.896,1.68-87.78c0-31.368-0.563-58.056-1.68-80.052h36.479
		c-1.109,21.66-1.681,48.336-1.681,80.052C2710.532,457.111,2711.095,486.38,2712.212,512.504z"/>
	<path fill="#FFFFFF" d="M2899.053,422.779c0,24.408-7.824,45.728-23.461,63.938c-15.648,18.228-37.564,27.324-65.748,27.324
		c-12.727,0-30.252-0.521-52.603-1.548c1.116-25.956,1.687-55.229,1.687-87.78c0-31.272-0.563-57.96-1.687-80.052h22.563
		c3.693,0,9.188-0.14,16.5-0.392c7.297-0.252,12.07-0.384,14.305-0.384c31.021,0,53.508,7.74,67.488,23.208
		C2892.068,382.567,2899.053,401.12,2899.053,422.779z M2863.867,428.324c0-16.5-4.811-30.396-14.436-41.72
		c-9.623-11.292-24.324-16.938-44.088-16.938c-3.695,0-8.76,0.384-15.217,1.164c0.854,17.188,1.277,35.146,1.277,53.88
		c0,20.544,0.439,40.908,1.285,61.104c5.58,1.116,11.172,1.688,16.752,1.688c18.479,0,32.16-5.748,41.051-17.228
		C2859.393,458.804,2863.867,444.824,2863.867,428.324z"/>
	<path fill="#FFFFFF" d="M3146.924,512.504h-41.256c0-5.676-3.91-21.744-11.748-48.216h-59.557
		c-8.076,26.04-12.123,42.104-12.123,48.216h-38.785c0-3.348,10.033-30.854,30.102-82.5c20.063-51.648,30.098-80.104,30.098-85.332
		h48.729c0,4.896,9.098,32.928,27.266,84.104C3137.816,479.96,3146.924,507.859,3146.924,512.504z M3087.367,439.664
		c-14.699-44.34-22.055-68.316-22.055-71.936h-2.064c0,3.354-7.596,27.324-22.801,71.936H3087.367z"/>
	<path fill="#FFFFFF" d="M3297.283,388.616c0,20.544-7.631,35.712-22.883,45.504s-33.961,14.692-56.137,14.692
		c-4.045,0-6.912-0.084-8.646-0.252c0,16.164,0.469,37.467,1.416,63.938h-36.229c1.109-24.828,1.68-54.101,1.68-87.78
		c0-30.938-0.564-57.624-1.68-80.052h22.428c3.18,0,9.27-0.132,18.301-0.386c9.021-0.254,16.836-0.39,23.459-0.39
		c16.32,0,30.121,3.696,41.377,11.092C3291.633,362.384,3297.283,373.58,3297.283,388.616z M3264.031,395.708
		c0-18.384-12.203-27.588-36.611-27.588c-6.105,0-12.553,0.646-19.332,1.932c0.949,16.248,1.416,34.632,1.416,55.176
		c2.148,0.188,4.646,0.252,7.479,0.252C3248.348,425.492,3264.031,415.567,3264.031,395.708z"/>
	<path fill="#FFFFFF" d="M3451.893,388.616c0,20.544-7.633,35.712-22.873,45.504c-15.252,9.792-33.971,14.692-56.148,14.692
		c-4.043,0-6.902-0.084-8.639-0.252c0,16.164,0.467,37.467,1.416,63.938h-36.229c1.113-24.828,1.68-54.101,1.68-87.78
		c0-30.938-0.563-57.624-1.68-80.052h22.428c3.18,0,9.273-0.132,18.301-0.386c9.023-0.254,16.836-0.39,23.459-0.39
		c16.32,0,30.121,3.696,41.377,11.092C3446.24,362.384,3451.893,373.58,3451.893,388.616z M3418.641,395.708
		c0-18.384-12.205-27.588-36.613-27.588c-6.104,0-12.551,0.646-19.332,1.932c0.949,16.248,1.416,34.632,1.416,55.176
		c2.148,0.188,4.646,0.252,7.48,0.252C3402.955,425.492,3418.641,415.567,3418.641,395.708z"/>
	<path fill="#FFFFFF" d="M3704.672,425.492c0,26.376-8.072,48.252-24.236,65.608c-16.164,17.364-36.146,26.04-59.941,26.04
		c-22.688,0-41.688-7.968-56.975-23.916c-15.289-15.936-22.943-36.204-22.943-60.768c0-26.376,8.074-48.252,24.238-65.616
		s36.145-26.04,59.938-26.04c22.691,0,41.689,7.944,56.98,23.844C3697.016,380.552,3704.672,400.819,3704.672,425.492z
		 M3669.092,429.224c0-17.964-4.598-32.532-13.787-43.704c-9.191-11.172-20.545-16.752-34.031-16.752
		c-12.553,0-23.207,5.628-31.969,16.885c-8.762,11.263-13.15,25.479-13.15,42.679c0,17.86,4.619,32.405,13.857,43.632
		c9.238,11.22,20.557,16.818,33.961,16.818c12.553,0,23.207-5.646,31.969-16.951
		C3664.713,460.531,3669.092,446.324,3669.092,429.224z"/>
	<path fill="#FFFFFF" d="M3879.393,512.504h-31.836c0-3.528-11.813-22.128-35.449-55.813c-24.744-35.496-38.844-59.76-42.27-72.821
		h-2.064c2.146,18.813,3.23,35.826,3.23,51.049c0,21.228,0.602,47.1,1.801,77.604h-31.717c1.277-26.64,1.934-55.896,1.934-87.775
		c0-31.365-0.645-58.061-1.934-80.057h38.273c0,4.563,10.619,22.74,31.836,54.528c22.607,33.768,35.58,56.676,38.932,68.712h1.938
		c-2.064-19.164-3.098-36.348-3.098-51.563c0-23.274-0.605-47.186-1.803-71.678h32.23c-1.213,21.313-1.799,48-1.799,80.057
		C3877.592,457.027,3878.191,486.284,3879.393,512.504z"/>
</g>
</svg>
